# Blender 3.6.5
# www.blender.org
mtllib e.mtl
o Cube
v 0.250000 0.500000 0.250000
v 0.250000 0.000000 0.250000
v -0.250000 0.500000 0.250000
v -0.250000 0.000000 0.250000
v 0.250000 0.500000 -0.250000
v 0.250000 0.000000 -0.250000
v -0.250000 0.500000 -0.250000
v -0.250000 0.000000 -0.250000
vn -0.0000 1.0000 -0.0000
vn -1.0000 -0.0000 -0.0000
vn -0.0000 -0.0000 -1.0000
vn -0.0000 -1.0000 -0.0000
vn -0.0000 -0.0000 1.0000
vn 1.0000 -0.0000 -0.0000
vt 0.746458 1.296913
vt 0.196486 0.747925
vt 0.749691 0.751158
vt -0.353485 0.198936
vt 0.199720 0.202170
vt 1.856101 0.757625
vt 1.306130 0.208637
vt 1.859334 0.211871
vt 0.752925 0.205404
vt 0.202953 -0.343585
vt 0.756158 -0.340351
vt 1.302896 0.754392
vt 0.193253 1.293679
vt -0.356718 0.744691
s 0
usemtl Material
f 5/1/1 3/2/1 1/3/1
f 3/2/2 8/4/2 4/5/2
f 7/6/3 6/7/3 8/8/3
f 2/9/4 8/10/4 6/11/4
f 1/3/5 4/5/5 2/9/5
f 5/12/6 2/9/6 6/7/6
f 5/1/1 7/13/1 3/2/1
f 3/2/2 7/14/2 8/4/2
f 7/6/3 5/12/3 6/7/3
f 2/9/4 4/5/4 8/10/4
f 1/3/5 3/2/5 4/5/5
f 5/12/6 1/3/6 2/9/6
