# Blender 3.6.5
# www.blender.org
mtllib b.mtl
o Cube
v 0.250000 0.500000 0.250000
v 0.250000 0.000000 0.250000
v -0.250000 0.500000 0.250000
v -0.250000 0.000000 0.250000
v 0.250000 0.500000 -0.250000
v 0.250000 0.000000 -0.250000
v -0.250000 0.500000 -0.250000
v -0.250000 0.000000 -0.250000
vn -0.0000 1.0000 -0.0000
vn -1.0000 -0.0000 -0.0000
vn -0.0000 -0.0000 -1.0000
vn -0.0000 -1.0000 -0.0000
vn -0.0000 -0.0000 1.0000
vn 1.0000 -0.0000 -0.0000
vt 0.808116 1.663527
vt 0.208981 0.903265
vt 0.811639 0.907743
vt -0.390153 0.143002
vt 0.212504 0.147480
vt 2.016953 0.916699
vt 1.417819 0.156436
vt 2.020476 0.160914
vt 0.815161 0.151958
vt 0.216027 -0.608305
vt 0.818684 -0.603827
vt 1.414296 0.912221
vt 0.205459 1.659050
vt -0.393675 0.898786
s 0
usemtl Material
f 5/1/1 3/2/1 1/3/1
f 3/2/2 8/4/2 4/5/2
f 7/6/3 6/7/3 8/8/3
f 2/9/4 8/10/4 6/11/4
f 1/3/5 4/5/5 2/9/5
f 5/12/6 2/9/6 6/7/6
f 5/1/1 7/13/1 3/2/1
f 3/2/2 7/14/2 8/4/2
f 7/6/3 5/12/3 6/7/3
f 2/9/4 4/5/4 8/10/4
f 1/3/5 3/2/5 4/5/5
f 5/12/6 1/3/6 2/9/6
