# 3ds Max Wavefront OBJ Exporter v0.97b - (c)2007 guruware
# File Created: 15.12.2013 18:14:19

mtllib Microwaves.mtl

#
# object Microwaves
#

v  -13.4096 0.0000 7.9528
v  -13.4096 0.0000 -7.9528
v  13.4096 0.0000 -7.9528
v  13.4096 0.0000 7.9528
v  -13.4096 14.8126 7.9528
v  13.4096 14.8126 7.9528
v  13.4096 14.8126 -7.9528
v  -13.4096 14.8126 -7.9528
# 8 vertices

vn 0.0000 -1.0000 -0.0000
vn 0.0000 1.0000 -0.0000
vn 0.0000 0.0000 1.0000
vn 1.0000 0.0000 -0.0000
vn 0.0000 0.0000 -1.0000
vn -1.0000 0.0000 -0.0000
# 6 vertex normals

vt 0.4066 0.2457 0.0000
vt 0.4066 0.0145 0.0000
vt 0.6697 0.0145 0.0000
vt 0.6697 0.2457 0.0000
vt 0.0078 0.0078 0.0000
vt 0.3975 0.0078 0.0000
vt 0.3975 0.2490 0.0000
vt 0.0078 0.2490 0.0000
vt 0.0058 0.2627 0.0000
vt 0.6753 0.2627 0.0000
vt 0.6753 0.6904 0.0000
vt 0.0058 0.6904 0.0000
vt 0.0067 0.6969 0.0000
vt 0.4990 0.6969 0.0000
vt 0.4990 0.9948 0.0000
vt 0.0067 0.9948 0.0000
vt 0.6928 0.6897 0.0000
vt 0.6928 0.0098 0.0000
vt 0.9942 0.0098 0.0000
vt 0.9942 0.6897 0.0000
vt 0.9950 0.6987 0.0000
vt 0.5064 0.6987 0.0000
vt 0.5064 0.9953 0.0000
vt 0.9950 0.9953 0.0000
# 24 texture coords

g Microwaves
usemtl Microwaves
s 2
f 1/1/1 2/2/1 3/3/1 4/4/1 
s 4
f 5/5/2 6/6/2 7/7/2 8/8/2 
s 8
f 1/9/3 4/10/3 6/11/3 5/12/3 
s 16
f 4/13/4 3/14/4 7/15/4 6/16/4 
s 32
f 3/17/5 2/18/5 8/19/5 7/20/5 
s 64
f 2/21/6 1/22/6 5/23/6 8/24/6 
# 6 polygons

