# Blender v2.90.1 OBJ File: 'Bookshelf.blend'
# www.blender.org
mtllib Bookshelf.mtl
o Cube_Cube.001
v -0.600048 0.058538 0.223391
v -0.600048 2.058538 0.223391
v -0.600048 0.058538 -0.223391
v -0.600048 2.058538 -0.223391
v 0.600048 0.058538 0.223391
v 0.600048 2.058538 0.223391
v 0.600048 0.058538 -0.223391
v 0.600048 2.058538 -0.223391
v -0.600048 0.391871 0.223391
v -0.600048 0.725205 0.223391
v -0.600048 1.058538 0.223391
v -0.600048 1.391871 0.223391
v -0.600048 1.725205 0.223391
v -0.600048 1.725205 -0.223391
v -0.600048 1.391871 -0.223391
v -0.600048 1.058538 -0.223391
v -0.600048 0.725205 -0.223391
v -0.600048 0.391871 -0.223391
v 0.600048 1.725205 -0.223391
v 0.600048 1.391871 -0.223391
v 0.600048 1.058538 -0.223391
v 0.600048 0.725205 -0.223391
v 0.600048 0.391871 -0.223391
v 0.600048 1.725205 0.223391
v 0.600048 1.391871 0.223391
v 0.600048 1.058538 0.223391
v 0.600048 0.725205 0.223391
v 0.600048 0.391871 0.223391
v -0.564694 0.093892 0.223391
v -0.564694 2.023184 0.223391
v -0.571181 0.087405 -0.194524
v -0.571181 2.029670 -0.194524
v 0.564694 0.093892 0.223391
v 0.564694 2.023184 0.223391
v 0.571181 0.087405 -0.194524
v 0.571181 2.029670 -0.194524
v -0.555328 0.369512 0.223391
v -0.555328 0.702845 0.223391
v -0.555328 1.036178 0.223391
v -0.555328 1.369512 0.223391
v -0.555328 1.702845 0.223391
v -0.566716 1.708538 -0.190059
v -0.566716 1.375205 -0.190059
v -0.566716 1.041872 -0.190059
v -0.566716 0.708538 -0.190059
v -0.566716 0.375205 -0.190059
v 0.566716 1.708538 -0.190059
v 0.566716 1.375205 -0.190059
v 0.566716 1.041872 -0.190059
v 0.566716 0.708538 -0.190059
v 0.566716 0.375205 -0.190059
v 0.555328 1.702845 0.223391
v 0.555328 1.369512 0.223391
v 0.555328 1.036178 0.223391
v 0.555328 0.702845 0.223391
v 0.555328 0.369512 0.223391
v 0.560094 0.058538 -0.223391
v -0.560094 0.058538 -0.223391
v -0.560094 0.058538 0.223391
v 0.560094 0.058538 0.223391
v 0.533148 0.087405 -0.194524
v -0.533148 0.087405 -0.194524
v -0.527093 0.093892 0.223391
v 0.527093 0.093892 0.223391
v -0.600048 0.058538 -0.148816
v -0.600048 0.058538 0.148816
v 0.600048 0.058538 0.148816
v 0.600048 0.058538 -0.148816
v -0.560094 0.058538 -0.148816
v -0.560094 0.058538 0.148816
v 0.560094 0.058538 -0.148816
v 0.560094 0.058538 0.148816
v -0.607536 0.001070 0.148816
v -0.607536 0.001070 0.223391
v -0.567082 0.001070 -0.223391
v -0.607536 0.001070 -0.223391
v 0.607536 0.001070 -0.148816
v 0.607536 0.001070 -0.223391
v 0.567082 0.001070 0.223391
v 0.607536 0.001070 0.223391
v 0.567082 0.001070 -0.223391
v -0.567082 0.001070 0.223391
v -0.567082 0.001070 0.148816
v 0.567082 0.001070 0.148816
v -0.607536 0.001070 -0.148816
v 0.607536 0.001070 0.148816
v -0.567082 0.001070 -0.148816
v 0.567082 0.001070 -0.148816
v 0.600048 0.058538 0.223391
v 0.600048 0.058538 -0.223391
v 0.560094 0.058538 -0.223391
v 0.560094 0.058538 0.223391
v 0.600048 0.058538 0.148816
v 0.600048 0.058538 -0.148816
v 0.560094 0.058538 -0.148816
v 0.560094 0.058538 0.148816
v 0.607536 0.001070 -0.148816
v 0.607536 0.001070 -0.223391
v 0.567082 0.001070 0.223391
v 0.607536 0.001070 0.223391
v 0.567082 0.001070 -0.223391
v 0.567082 0.001070 0.148816
v 0.607536 0.001070 0.148816
v 0.567082 0.001070 -0.148816
v -0.600048 0.391871 0.223391
v -0.600048 0.725205 0.223391
v -0.600048 1.058538 0.223391
v -0.600048 1.391871 0.223391
v -0.600048 1.725205 0.223391
v 0.600048 1.725205 0.223391
v 0.600048 1.391871 0.223391
v 0.600048 1.058538 0.223391
v 0.600048 0.725205 0.223391
v 0.600048 0.391871 0.223391
v -0.555328 0.369512 0.223391
v -0.555328 0.702845 0.223391
v -0.555328 1.036178 0.223391
v -0.555328 1.369512 0.223391
v -0.555328 1.702845 0.223391
v 0.555328 1.702845 0.223391
v 0.555328 1.369512 0.223391
v 0.555328 1.036178 0.223391
v 0.555328 0.702845 0.223391
v 0.555328 0.369512 0.223391
v -0.600048 0.058538 0.223391
v 0.600048 0.058538 0.223391
v -0.564694 0.093892 0.223391
v 0.564694 0.093892 0.223391
v -0.560094 0.058538 0.223391
v 0.560094 0.058538 0.223391
v -0.527093 0.093892 0.223391
v 0.527093 0.093892 0.223391
vt 0.486292 0.517190
vt 0.486291 0.441431
vt 0.575690 0.441431
vt 0.575690 0.517190
vt 0.001498 0.075759
vt 0.001498 0.000000
vt 0.241642 0.000000
vt 0.241642 0.075759
vt 0.665103 0.833288
vt 0.665103 0.909046
vt 0.575704 0.909046
vt 0.575705 0.833288
vt 0.357606 0.467614
vt 0.357606 0.740368
vt 0.268205 0.740368
vt 0.268205 0.467614
vt 0.089402 0.740368
vt 0.089402 0.467614
vt 0.178803 0.467614
vt 0.178803 0.740368
vt 0.357606 0.740368
vt 0.357606 0.467614
vt 0.447008 0.467614
vt 0.447008 0.740368
vt 0.000000 0.740368
vt 0.000000 0.467614
vt 0.089402 0.467614
vt 0.089402 0.740368
vt 0.748759 0.714185
vt 0.748759 0.441431
vt 0.838160 0.441431
vt 0.838160 0.714185
vt 0.178803 0.740368
vt 0.178803 0.467614
vt 0.268205 0.467614
vt 0.268205 0.740368
vt 0.665106 0.454494
vt 0.665106 0.530253
vt 0.575707 0.530253
vt 0.575708 0.454494
vt 0.590630 0.454494
vt 0.650184 0.454494
vt 0.665105 0.606011
vt 0.575706 0.606011
vt 0.665104 0.681770
vt 0.575706 0.681770
vt 0.665104 0.757529
vt 0.575705 0.757529
vt 0.001498 0.454553
vt 0.001498 0.378794
vt 0.241642 0.378794
vt 0.241642 0.454553
vt 0.233647 0.454553
vt 0.009493 0.454553
vt 0.001498 0.303035
vt 0.241642 0.303035
vt 0.001498 0.227277
vt 0.241642 0.227277
vt 0.001498 0.151518
vt 0.241642 0.151518
vt 0.486295 0.895984
vt 0.486294 0.820225
vt 0.575693 0.820225
vt 0.575693 0.895984
vt 0.560771 0.895984
vt 0.501217 0.895984
vt 0.486293 0.744466
vt 0.575692 0.744466
vt 0.486293 0.668708
vt 0.575692 0.668708
vt 0.486292 0.592949
vt 0.575691 0.592949
vt 0.714871 0.367149
vt 0.797622 0.368444
vt 0.798524 0.441431
vt 0.714889 0.439956
vt 0.713978 0.072986
vt 0.487174 0.072986
vt 0.486280 0.000000
vt 0.714871 0.000000
vt 0.666008 0.809876
vt 0.748759 0.808580
vt 0.748741 0.881388
vt 0.665106 0.882862
vt 0.167264 0.749012
vt 0.083632 0.750388
vt 0.083632 0.741842
vt 0.167264 0.740368
vt 0.083632 1.000000
vt 0.000000 0.998526
vt 0.000000 0.741842
vt 0.083632 0.740368
vt 0.250002 0.995382
vt 0.167264 0.997970
vt 0.167264 0.740368
vt 0.250002 0.742956
vt 0.332740 0.995382
vt 0.250002 0.997970
vt 0.250002 0.740368
vt 0.332740 0.742956
vt 0.415478 0.995382
vt 0.332740 0.997970
vt 0.332740 0.740368
vt 0.415478 0.742956
vt 0.920898 0.696445
vt 0.838160 0.699034
vt 0.838161 0.441431
vt 0.920898 0.444019
vt 0.881262 0.255014
vt 0.798524 0.257602
vt 0.798524 0.000000
vt 0.881262 0.002588
vt 0.665106 0.441431
vt 0.748741 0.442905
vt 0.748759 0.505545
vt 0.666008 0.506840
vt 0.748759 0.581304
vt 0.666008 0.582599
vt 0.748759 0.657063
vt 0.666008 0.658358
vt 0.748759 0.732821
vt 0.666008 0.734117
vt 0.714871 0.441431
vt 0.707261 0.441431
vt 0.493891 0.441431
vt 0.486280 0.441431
vt 0.487174 0.376021
vt 0.713978 0.376021
vt 0.487174 0.300262
vt 0.713978 0.300262
vt 0.487174 0.224503
vt 0.713978 0.224503
vt 0.487174 0.148745
vt 0.713978 0.148745
vt 0.714889 0.001474
vt 0.798524 0.000000
vt 0.797622 0.065409
vt 0.714871 0.064114
vt 0.797622 0.141168
vt 0.714871 0.139873
vt 0.797622 0.216927
vt 0.714871 0.215631
vt 0.797622 0.292686
vt 0.714871 0.291390
vt 0.484782 0.000000
vt 0.484782 0.075759
vt 0.475833 0.080841
vt 0.477708 0.008035
vt 0.837227 0.027944
vt 0.851171 0.189953
vt 0.336123 0.179165
vt 0.432267 0.045190
vt 0.000000 1.000000
vt 0.000000 0.000000
vt 0.920898 0.029459
vt 0.920898 0.970541
vt 0.484782 0.378794
vt 0.484782 0.454553
vt 0.477708 0.446518
vt 0.475833 0.383876
vt 0.484782 0.303035
vt 0.475833 0.308117
vt 0.484782 0.227277
vt 0.475833 0.232358
vt 0.484782 0.151518
vt 0.475833 0.156599
vt 0.906951 0.837991
vt 0.920896 1.000000
vt 0.512978 0.982880
vt 0.391902 0.827202
vt 0.893006 0.675981
vt 0.377957 0.665193
vt 0.879062 0.513972
vt 0.364013 0.503184
vt 0.865116 0.351963
vt 0.350068 0.341175
vt 0.167264 1.000000
vt 0.083632 0.998526
vt 0.083632 0.989980
vt 0.167264 0.991356
vt 0.000000 1.000000
vt 0.000000 0.500000
vt 0.271691 0.500000
vt 0.271691 1.000000
vt 0.823238 0.977858
vt 0.823238 0.723266
vt 0.838160 0.723266
vt 0.838160 0.977858
vt 0.748759 0.977858
vt 0.748759 0.723266
vt 0.763681 0.723266
vt 0.763681 0.977858
vt 0.734756 0.032339
vt 0.920898 0.000000
vt 0.920898 0.388141
vt 0.732433 0.420884
vt 0.763681 0.986939
vt 0.823238 0.986939
vt 0.763681 0.714185
vt 0.823238 0.714185
vt 0.458506 0.467629
vt 0.466601 0.467629
vt 0.466601 0.484578
vt 0.458506 0.484578
vt 0.458506 0.518490
vt 0.466601 0.518490
vt 0.466601 0.535439
vt 0.458506 0.535439
vt 0.447008 0.518505
vt 0.455103 0.518505
vt 0.455103 0.535454
vt 0.447008 0.535454
vt 0.458506 0.501541
vt 0.466601 0.501541
vt 0.466601 0.518490
vt 0.458506 0.518490
vt 0.000000 0.500000
vt 0.000000 0.000000
vt 0.271984 0.000000
vt 0.271984 0.500000
vt 0.271984 0.500000
vt 0.271984 0.000000
vt 0.543968 0.000000
vt 0.543968 0.500000
vt 0.920606 0.920883
vt 0.734464 0.888544
vt 0.732141 0.500000
vt 0.920607 0.532743
vt 0.732141 0.920883
vt 0.545998 0.888544
vt 0.543675 0.500000
vt 0.732141 0.532743
vt 0.546290 0.032340
vt 0.732433 0.000000
vt 0.732433 0.388141
vt 0.543968 0.420884
vt 0.271984 1.000000
vt 0.271984 0.500000
vt 0.543675 0.500000
vt 0.543675 1.000000
vt 0.920607 0.920883
vt 0.734464 0.888544
vt 0.732142 0.500000
vt 0.920607 0.532743
vt 0.546290 0.032340
vt 0.732433 0.000000
vt 0.732433 0.388141
vt 0.543968 0.420884
vt 0.271984 1.000000
vt 0.271984 0.500000
vt 0.543676 0.500000
vt 0.543675 1.000000
vt 0.000000 1.000000
vt 0.000000 0.500000
vt 0.271692 0.500000
vt 0.271691 1.000000
vt 0.271984 0.500000
vt 0.271984 0.000000
vt 0.543968 0.000000
vt 0.543968 0.499999
vt 0.732141 0.920883
vt 0.545998 0.888544
vt 0.543676 0.500000
vt 0.732142 0.532743
vt 0.000000 0.500000
vt 0.000000 0.000000
vt 0.271984 0.000000
vt 0.271984 0.500000
vt 0.734755 0.032340
vt 0.920898 0.000000
vt 0.920898 0.388141
vt 0.732433 0.420884
vt 0.368361 1.000000
vt 0.368361 0.000000
vt 0.552541 0.037264
vt 0.552541 0.962736
vt 0.736720 0.000000
vt 0.736719 1.000000
vt 0.552541 0.962736
vt 0.552541 0.037264
vt 0.000002 1.000000
vt 0.000000 0.000000
vt 0.184179 0.037264
vt 0.184181 0.962736
vt 0.736720 1.000000
vt 0.736720 0.000000
vt 0.920898 0.037264
vt 0.920898 0.962736
vt 0.184183 1.000000
vt 0.184181 0.000000
vt 0.368359 0.037264
vt 0.368361 0.962736
vt 0.920898 0.966707
vt 0.920898 1.000000
vt 0.000002 0.970541
vt 0.000002 0.939209
vt 0.920896 0.000000
vt 0.920896 0.033293
vt 0.000000 0.060791
vt 0.000000 0.029459
vn -1.0000 0.0000 0.0000
vn 0.0000 0.0000 -1.0000
vn 1.0000 0.0000 0.0000
vn 0.0000 1.0000 0.0000
vn 0.9995 0.0214 -0.0212
vn 0.0000 0.0139 0.9999
vn -0.9995 0.0214 -0.0212
vn 0.0000 0.9999 -0.0155
vn 0.0000 -0.9999 -0.0155
vn 0.0000 -0.9999 -0.0138
vn -0.9995 -0.0244 -0.0215
vn -0.9996 0.0000 -0.0275
vn 0.0000 -0.0155 0.9999
vn 0.0000 0.0000 1.0000
vn 0.9995 -0.0244 -0.0215
vn 0.9996 0.0000 -0.0275
vn 0.9927 -0.1207 0.0000
vn 0.0000 -1.0000 0.0000
vn -0.9916 0.1292 0.0000
vn -0.9927 -0.1207 0.0000
vn 0.9916 0.1292 0.0000
usemtl Material.001
s off
f 13/1/1 2/2/1 4/3/1 14/4/1
f 14/5/2 4/6/2 8/7/2 19/8/2
f 19/9/3 8/10/3 6/11/3 24/12/3
f 8/13/4 4/14/4 2/15/4 6/16/4
f 13/17/4 24/18/4 19/19/4 14/20/4
f 9/21/4 28/22/4 23/23/4 18/24/4
f 10/25/4 27/26/4 22/27/4 17/28/4
f 11/29/4 26/30/4 21/31/4 16/32/4
f 12/33/4 25/34/4 20/35/4 15/36/4
f 7/37/3 23/38/3 28/39/3 5/40/3 67/41/3 68/42/3
f 23/38/3 22/43/3 27/44/3 28/39/3
f 22/43/3 21/45/3 26/46/3 27/44/3
f 21/45/3 20/47/3 25/48/3 26/46/3
f 20/47/3 19/9/3 24/12/3 25/48/3
f 3/49/2 18/50/2 23/51/2 7/52/2 57/53/2 58/54/2
f 18/50/2 17/55/2 22/56/2 23/51/2
f 17/55/2 16/57/2 21/58/2 22/56/2
f 16/57/2 15/59/2 20/60/2 21/58/2
f 15/59/2 14/5/2 19/8/2 20/60/2
f 1/61/1 9/62/1 18/63/1 3/64/1 65/65/1 66/66/1
f 9/62/1 10/67/1 17/68/1 18/63/1
f 10/67/1 11/69/1 16/70/1 17/68/1
f 11/69/1 12/71/1 15/72/1 16/70/1
f 12/71/1 13/1/1 14/4/1 15/72/1
f 41/73/5 42/74/5 32/75/5 30/76/5
f 42/77/6 47/78/6 36/79/6 32/80/6
f 47/81/7 52/82/7 34/83/7 36/84/7
f 61/85/8 64/86/8 33/87/8 35/88/8
f 36/89/9 34/90/9 30/91/9 32/92/9
f 41/93/10 42/94/10 47/95/10 52/96/10
f 37/97/10 46/98/10 51/99/10 56/100/10
f 38/101/10 45/102/10 50/103/10 55/104/10
f 39/105/10 44/106/10 49/107/10 54/108/10
f 40/109/10 43/110/10 48/111/10 53/112/10
f 35/113/11 33/114/11 56/115/11 51/116/11
f 51/116/12 56/115/12 55/117/12 50/118/12
f 50/118/12 55/117/12 54/119/12 49/120/12
f 49/120/12 54/119/12 53/121/12 48/122/12
f 48/122/12 53/121/12 52/82/12 47/81/12
f 31/123/13 62/124/13 61/125/13 35/126/13 51/127/13 46/128/13
f 46/128/14 51/127/14 50/129/14 45/130/14
f 45/130/14 50/129/14 49/131/14 44/132/14
f 44/132/14 49/131/14 48/133/14 43/134/14
f 43/134/14 48/133/14 47/78/14 42/77/14
f 29/135/15 31/136/15 46/137/15 37/138/15
f 37/138/16 46/137/16 45/139/16 38/140/16
f 38/140/16 45/139/16 44/141/16 39/142/16
f 39/142/16 44/141/16 43/143/16 40/144/16
f 40/144/16 43/143/16 42/74/16 41/73/16
f 2/145/14 13/146/14 41/147/14 30/148/14
f 5/149/14 28/150/14 56/151/14 33/152/14
f 6/153/14 2/154/14 30/155/14 34/156/14
f 9/157/14 1/158/14 29/159/14 37/160/14
f 10/161/14 9/157/14 37/160/14 38/162/14
f 11/163/14 10/161/14 38/162/14 39/164/14
f 12/165/14 11/163/14 39/164/14 40/166/14
f 13/146/14 12/165/14 40/166/14 41/147/14
f 24/167/14 6/168/14 34/169/14 52/170/14
f 25/171/14 24/167/14 52/170/14 53/172/14
f 26/173/14 25/171/14 53/172/14 54/174/14
f 27/175/14 26/173/14 54/174/14 55/176/14
f 28/150/14 27/175/14 55/176/14 56/151/14
f 31/177/8 29/178/8 63/179/8 62/180/8
f 62/180/8 63/179/8 64/86/8 61/85/8
f 70/181/17 59/182/17 82/183/17 83/184/17
f 70/185/18 72/186/18 60/187/18 59/188/18
f 58/189/18 57/190/18 71/191/18 69/192/18
f 69/192/18 71/191/18 72/186/18 70/185/18
f 3/193/2 58/194/2 75/195/2 76/196/2
f 65/197/18 69/192/18 70/185/18 66/198/18
f 71/191/18 68/199/18 67/200/18 72/186/18
f 84/201/18 86/202/18 80/203/18 79/204/18
f 73/205/18 83/206/18 82/207/18 74/208/18
f 76/209/18 75/210/18 87/211/18 85/212/18
f 81/213/18 78/214/18 77/215/18 88/216/18
f 65/217/19 3/218/19 76/219/19 85/220/19
f 1/221/19 66/222/19 73/223/19 74/224/19
f 69/225/14 65/226/14 85/227/14 87/228/14
f 59/229/14 1/230/14 74/231/14 82/232/14
f 66/233/2 70/234/2 83/235/2 73/236/2
f 58/237/17 69/238/17 87/239/17 75/240/17
f 96/241/2 93/242/2 103/243/2 102/244/2
f 94/245/14 95/246/14 104/247/14 97/248/14
f 95/249/20 91/250/20 101/251/20 104/252/20
f 92/253/20 96/254/20 102/255/20 99/256/20
f 90/257/21 94/258/21 97/259/21 98/260/21
f 91/261/2 90/262/2 98/263/2 101/264/2
f 93/265/21 89/266/21 100/267/21 103/268/21
f 89/269/14 92/270/14 99/271/14 100/272/14
f 110/273/14 109/274/14 119/275/14 120/276/14
f 114/277/14 105/278/14 115/279/14 124/280/14
f 113/281/14 106/282/14 116/283/14 123/284/14
f 112/285/14 107/286/14 117/287/14 122/288/14
f 111/289/14 108/290/14 118/291/14 121/292/14
f 130/293/14 126/294/14 128/295/14 132/296/14
f 125/297/14 129/298/14 131/299/14 127/300/14
f 129/298/14 130/293/14 132/296/14 131/299/14
