mtllib new-0.mtl
v 0.014503 -0.464826 0.074612
v -0.700642 -0.464826 0.074612
v -0.700642 0.107290 0.074612
v 0.014503 -0.444394 0.064395
v -0.680209 0.107290 0.064395
v -0.680209 -0.444394 0.064395
v 0.014503 0.107290 0.064395
v 0.734982 -0.505342 0.074612
v 0.014503 -0.464826 0.074612
v 0.729648 -0.464826 0.074612
v 0.729648 0.107290 0.074612
v 0.014503 -0.444394 0.064395
v 0.709215 0.107290 0.064395
v 0.709215 -0.444394 0.064395
v 0.014503 0.107290 0.064395
v 0.734982 0.719922 0.074612
v 0.014503 0.679406 0.074612
v 0.729648 0.679406 0.074612
v 0.729648 0.107290 0.074612
v 0.014503 0.658973 0.064395
v 0.709215 0.107290 0.064395
v 0.709215 0.658973 0.064395
v 0.014503 0.107290 0.064395
v 0.014503 0.679406 0.074612
v -0.700642 0.679406 0.074612
v -0.700642 0.107290 0.074612
v 0.014503 0.658973 0.064395
v -0.680209 0.107290 0.064395
v -0.680209 0.658973 0.064395
v 0.014503 0.107290 0.064395
vn 0.000000 0.000000 1.000000
vn 0.000000 0.447214 0.894427
vn 0.447214 0.000000 0.894427
vn 0.000000 0.000000 -1.000000
vn 0.000000 -0.447214 -0.894427
vn -0.447214 0.000000 -0.894427
vn 0.000000 0.000000 1.000000
vn 0.000000 0.447214 0.894427
vn -0.447214 0.000000 0.894427
vn 0.000000 0.000000 -1.000000
vn 0.000000 -0.447214 -0.894427
vn 0.447214 0.000000 -0.894427
vn 0.000000 0.000000 1.000000
vn 0.000000 -0.447214 0.894427
vn -0.447214 0.000000 0.894427
vn 0.000000 0.000000 -1.000000
vn 0.000000 0.447214 -0.894427
vn 0.447214 0.000000 -0.894427
vn 0.000000 0.000000 1.000000
vn 0.000000 -0.447214 0.894427
vn 0.447214 0.000000 0.894427
vn 0.000000 0.000000 -1.000000
vn 0.000000 0.447214 -0.894427
vn -0.447214 0.000000 -0.894427
usemtl material-0
f 1//2 4//2 2//2
f 3//3 2//3 5//3
f 6//2 2//2 4//2
f 6//3 5//3 2//3
usemtl material-1
f 2//5 4//5 1//5
f 5//6 2//6 3//6
f 4//5 2//5 6//5
f 2//6 5//6 6//6
f 6//4 7//4 4//4
f 7//4 6//4 5//4
usemtl material-2
f 4//1 7//1 6//1
f 5//1 6//1 7//1
usemtl material-3
f 10//7 8//7 11//7
f 10//8 12//8 9//8
f 13//9 10//9 11//9
f 12//8 10//8 14//8
f 10//9 13//9 14//9
usemtl material-4
f 11//10 8//10 10//10
f 9//11 12//11 10//11
f 11//12 10//12 13//12
f 14//11 10//11 12//11
f 14//12 13//12 10//12
f 12//10 15//10 14//10
f 13//10 14//10 15//10
usemtl material-5
f 14//7 15//7 12//7
f 15//7 14//7 13//7
usemtl material-6
f 19//13 16//13 18//13
f 17//14 20//14 18//14
f 19//15 18//15 21//15
f 22//14 18//14 20//14
f 22//15 21//15 18//15
usemtl material-7
f 18//16 16//16 19//16
f 18//17 20//17 17//17
f 21//18 18//18 19//18
f 20//17 18//17 22//17
f 18//18 21//18 22//18
f 22//16 23//16 20//16
f 23//16 22//16 21//16
usemtl material-8
f 20//13 23//13 22//13
f 21//13 22//13 23//13
usemtl material-9
f 25//20 27//20 24//20
f 28//21 25//21 26//21
f 27//20 25//20 29//20
f 25//21 28//21 29//21
usemtl material-10
f 24//23 27//23 25//23
f 26//24 25//24 28//24
f 29//23 25//23 27//23
f 29//24 28//24 25//24
f 27//22 30//22 29//22
f 28//22 29//22 30//22
usemtl material-11
f 29//19 30//19 27//19
f 30//19 29//19 28//19